#define A_width 8
#define A_height 13
static char A_bits[] = {
  0x00, 0x00, 0x18, 0x18, 0x1C, 0x2C, 0x3C, 0x3E, 0x62, 0x42, 0x00, 0x00, 
  0x00, };
